<svg xmlns="http://www.w3.org/2000/svg" width="1240" height="1240"><path d="M14 619.5V849h1212V390H14v229.5M1206 466v55H34v308h1173V620c0-114.95-.225-209-.5-209s-.5 24.75-.5 55m-572.672-25.121c-5.262 2.464-7.828 6.314-7.828 11.746 0 5.683 2.895 8.615 13.25 13.419 6.928 3.214 8.25 4.206 8.25 6.191 0 1.301-.54 2.905-1.2 3.565-1.863 1.863-8.453 1.417-12.946-.875l-4.066-2.074-2.394 2.249c-1.317 1.237-2.394 2.805-2.394 3.485 0 .68 2.338 2.401 5.196 3.826 12.946 6.451 27.304.709 27.304-10.919 0-5.725-3.512-9.446-12.384-13.122-8.314-3.445-9.116-4.062-9.116-7.017 0-4.391 7.929-5.416 13.69-1.771 1.988 1.258 2.38 1.144 4.25-1.233 1.133-1.44 2.06-2.925 2.06-3.3 0-1.52-8.234-5.166-12.712-5.629-3.471-.359-5.935.043-8.96 1.459M505 462v22h10.532c11.74 0 15.897-1.188 19.3-5.514 1.537-1.953 2.168-4.147 2.168-7.532 0-4.106-.432-5.14-3.077-7.365-1.692-1.424-3.829-2.607-4.75-2.629-1.121-.027-.774-.528 1.052-1.519 1.499-.813 3.186-2.341 3.75-3.394 1.515-2.831 1.245-8.288-.536-10.83-2.897-4.137-6.6-5.217-17.889-5.217H505v22m40-.084V484h9v-17l2.75.006c2.429.005 3.276.998 7.25 8.494l4.5 8.488 4.75.006c2.612.003 4.75-.262 4.75-.59 0-.328-2.033-4.325-4.517-8.883l-4.517-8.287 3.438-3.438c6.027-6.027 5.691-15.393-.724-20.189-2.424-1.812-4.491-2.154-14.749-2.441L545 439.833v22.083m49.696-21.215c-.579.959-13.696 42.792-13.696 43.68 0 .34 1.995.619 4.433.619 3.361 0 4.555-.423 4.94-1.75.279-.962 1.002-3.663 1.606-6l1.098-4.25h13.512l1.456 5.75 1.455 5.75 4.75.305c2.612.167 4.744-.058 4.738-.5-.007-.443-3.081-10.48-6.831-22.305l-6.819-21.5-5.079-.299c-2.794-.165-5.297.06-5.563.5m70.494 3.049c.307 3.714.356 3.753 5.06 4.055l4.75.305v27.78l-4.75.305c-4.704.302-4.753.341-5.06 4.055l-.311 3.75h30.242l-.311-3.75c-.307-3.714-.356-3.753-5.06-4.055l-4.75-.305v-27.78l4.75-.305c4.704-.302 4.753-.341 5.06-4.055l.311-3.75h-30.242l.311 3.75M707 462v22h29v-8h-20v-36h-9v22m-193-9.37v5.63l4.499-.507c5.542-.625 7.501-2.15 7.501-5.84 0-3.462-2.343-4.913-7.934-4.913H514v5.63m40 .87v6.5h3.435c7.15 0 11.244-3.446 9.997-8.414-.69-2.75-4.725-4.586-10.081-4.586H554v6.5m43.585 2.763c-.976 3.98-1.994 7.8-2.263 8.487-.348.889.834 1.25 4.095 1.25 3.006 0 4.583-.431 4.583-1.253 0-1.411-3.742-14.823-4.288-15.368-.194-.194-1.151 2.904-2.127 6.884M514 470.385V477h4.777c6.252 0 9.223-2.073 9.223-6.434 0-4.29-1.262-5.22-8.25-6.085l-5.75-.711v6.615m-47.5 102.33c-18.058 2.497-36.432 12.802-47.803 26.809-6.428 7.919-14.108 23.828-16.884 34.976-1.905 7.651-2.241 11.698-2.241 27 0 15.31.334 19.334 2.237 26.927 7.697 30.712 26.795 51.191 54.72 58.679 10.313 2.765 28.86 3.035 38.471.558 10.393-2.677 22.268-9.048 29.532-15.843 3.558-3.328 6.468-6.396 6.468-6.818 0-.422-3.897-5.061-8.66-10.31l-8.66-9.543-5.59 4.578c-3.074 2.517-8.515 5.967-12.09 7.667-5.843 2.778-7.46 3.091-16 3.098-11.509.009-17.547-1.85-25.833-7.949C439.699 701.893 432.1 681.28 433.324 656c.92-19.013 5.399-31.266 15.358-42.023 7.737-8.357 15.714-12.08 27.3-12.74 12.644-.721 21.849 2.266 30.891 10.024 1.855 1.591 3.722 2.521 4.15 2.066.427-.455 4.467-5.102 8.977-10.327l8.2-9.5-5.35-4.819c-6.697-6.033-21.156-13.267-30.35-15.186-6.525-1.361-19.076-1.738-26-.78M100.495 659.75c-14.767 46.612-27.042 85.313-27.279 86-.333.968 3.395 1.25 16.508 1.25h16.937l5.92-22.012 5.919-22.012 27.891.262 27.892.262 5.237 19.199c2.881 10.559 5.526 20.346 5.878 21.75l.64 2.551h17.598c16.277 0 17.561-.131 17.114-1.75-.266-.962-12.563-39.663-27.328-86L166.577 575h-39.234l-26.848 84.75M248 660.989v86.212l37.25-.494c39.763-.527 44.116-.995 56.648-6.088 13.692-5.563 22.979-14.48 27.351-26.259 1.756-4.731 2.182-8.077 2.211-17.36.034-10.599-.189-11.988-2.841-17.734-4.918-10.653-14.693-18.026-28.619-21.588-3.025-.773-5.412-1.751-5.303-2.173.108-.422 2.663-1.77 5.678-2.996 10.223-4.154 17.548-12.056 21.25-22.923 2.493-7.314 1.572-22.393-1.815-29.734-3.499-7.582-9.512-13.344-18.154-17.392-12.679-5.939-18.129-6.615-57.906-7.177l-35.75-.505v86.211m471 .125v86.115l30.75-.514c34.854-.582 40.393-1.377 54.062-7.761 14.844-6.933 25.169-17.016 32.207-31.454 6.285-12.892 8.112-22.049 8.678-43.5.429-16.231.226-19.773-1.65-28.883-5.177-25.128-16.519-40.859-36.547-50.688-15.97-7.838-26.369-9.385-63.25-9.412L719 575v86.114m195.763-83.081c-14.069 2.369-29.914 10.991-40.227 21.891l-2.965 3.133 8.65 8.65 8.649 8.649 3.315-2.689c14.706-11.929 22.314-15.048 35.315-14.477 7.642.335 9.818.841 14.423 3.352 9.628 5.251 13.752 13.777 12.839 26.541-.655 9.156-6.006 20.132-15.559 31.917-8.438 10.41-29.614 30.957-50.5 49l-15.627 13.5-.038 9.75L873 747h122v-28.238l-35.25.47c-19.388.258-36.038.81-37 1.226-3.737 1.615-1.112-1.372 10.511-11.958 22.379-20.384 39.876-40.976 46.731-55 4.851-9.924 6.207-15.693 6.172-26.26-.049-14.789-4.843-26.024-15.193-35.606-7.167-6.636-15.745-10.912-26.179-13.053-8.063-1.654-21.955-1.908-30.029-.548m160.237-.34c-7.067 1.188-17.875 4.721-24.291 7.941-6.737 3.382-18.709 11.118-18.709 12.09 0 .239 3.68 4.878 8.177 10.31l8.177 9.877 4.573-3.332c10.432-7.602 21.621-11.579 32.573-11.579 12.898 0 22.864 4.841 26.149 12.702 3.322 7.952.633 18.739-5.89 23.622-8.037 6.016-15.818 8.396-30.509 9.329l-10.25.651v23.392l12.25.629c21.749 1.116 33.792 6.027 38.821 15.833 9.175 17.889-5.662 33.888-31.37 33.827-12.065-.029-26.649-5.272-37.314-13.415-2.571-1.964-4.975-3.57-5.343-3.57-.689 0-1.041.449-10.112 12.896l-5.39 7.396 5.386 4.824c7.277 6.518 19.096 12.48 30.848 15.563 13.307 3.49 34.597 3.689 46.724.435 12.33-3.307 21.751-8.229 28.908-15.101 10.699-10.274 15.194-23.03 12.879-36.545-1.371-8.007-4.158-13.608-9.621-19.337-6.765-7.095-12.521-10.368-27.666-15.731-.915-.324 1.77-2.134 6.879-4.638 10.971-5.377 18.929-12.714 22.557-20.798 5.196-11.579 3.175-27.709-4.793-38.246-6.387-8.447-19.994-15.63-34.643-18.287-7.01-1.272-23.35-1.688-29-.738m-461 3.817c-6.937 3.992-25.289 9.872-37.25 11.934l-3.75.647V615h35v105h-44v27h117v-27h-40V580l-12.25.035c-8.778.026-12.959.444-14.75 1.475m-472.425 35.24c-2.123 8.663-6.496 25.509-9.717 37.436-3.222 11.928-5.858 21.94-5.858 22.25 0 .31 9.225.564 20.5.564s20.5-.147 20.5-.327c0-.179-1.315-5.017-2.923-10.75-1.608-5.732-5.904-21.898-9.547-35.923-7.916-30.474-7.49-29-8.38-29-.393 0-2.452 7.087-4.575 15.75M281 623.5V646h13.29c20.94 0 29.451-3.216 34.46-13.02 3.124-6.114 3.095-15.068-.068-21.048-4.265-8.065-13.395-10.932-34.818-10.932H281v22.5M752 661v59l8.25-.017c21.8-.046 36.442-7.805 44.049-23.341 5.257-10.737 6.203-16.414 6.184-37.142-.016-18.166-.138-19.345-2.782-26.866-4.44-12.631-10.505-19.967-20.837-25.203-6.266-3.175-17.668-5.431-27.452-5.431H752v59m-471 34.503v25.688l18.25-.452c19.834-.492 23.172-1.153 30.385-6.016 6.793-4.58 9.587-10.411 9.587-20.011 0-11.446-4.224-17.982-14.156-21.904-4.884-1.928-7.924-2.246-24.816-2.595l-19.25-.397v25.687" fill="undefined" fill-rule="evenodd"/></svg>